<svg width="38" height="63" viewBox="0 0 38 63" fill="none" xmlns="http://www.w3.org/2000/svg">
<path d="M5.99121 46.1138C5.68685 46.4432 5.31266 46.6921 4.86865 46.8604C4.42822 47.0251 3.94482 47.1074 3.41846 47.1074C2.51969 47.1074 1.82145 46.8299 1.32373 46.2749C0.826009 45.7163 0.569987 44.9053 0.555664 43.8418V42.4346C0.555664 41.3568 0.790202 40.5278 1.25928 39.9478C1.73193 39.3641 2.41943 39.0723 3.32178 39.0723C4.17041 39.0723 4.80957 39.2817 5.23926 39.7007C5.67253 40.1196 5.92318 40.7767 5.99121 41.6719H4.45508C4.41211 41.1742 4.30827 40.8358 4.14355 40.6567C3.97884 40.4741 3.72103 40.3828 3.37012 40.3828C2.94401 40.3828 2.63428 40.5386 2.44092 40.8501C2.24756 41.1616 2.1473 41.6576 2.14014 42.3379V43.7559C2.14014 44.4684 2.24577 44.9876 2.45703 45.3135C2.67188 45.6357 3.02279 45.7969 3.50977 45.7969C3.82129 45.7969 4.07373 45.7342 4.26709 45.6089L4.40674 45.5122V44.0781H3.30029V42.8857H5.99121V46.1138ZM11.1475 43.6162H8.6875V45.6895H11.5986V47H7.1084V39.1797H11.5879V40.4956H8.6875V42.3433H11.1475V43.6162ZM17.9795 47H16.4004L14.0908 41.8706V47H12.5117V39.1797H14.0908L16.4058 44.3145V39.1797H17.9795V47ZM23.0767 45.3994H20.9229L20.5039 47H18.8335L21.2773 39.1797H22.7222L25.1821 47H23.4956L23.0767 45.3994ZM21.2666 44.0835H22.7275L21.9971 41.2959L21.2666 44.0835ZM28.2866 44.1426H27.5024V47H25.9233V39.1797H28.4424C29.2337 39.1797 29.8442 39.3856 30.2739 39.7974C30.7072 40.2056 30.9238 40.7874 30.9238 41.543C30.9238 42.5814 30.5461 43.3083 29.7905 43.7236L31.1602 46.9248V47H29.4629L28.2866 44.1426ZM27.5024 42.8267H28.3994C28.7145 42.8267 28.9508 42.7228 29.1084 42.5151C29.266 42.3039 29.3447 42.0228 29.3447 41.6719C29.3447 40.8877 29.0386 40.4956 28.4263 40.4956H27.5024V42.8267ZM35.7417 45.3994H33.5879L33.1689 47H31.4985L33.9424 39.1797H35.3872L37.8472 47H36.1606L35.7417 45.3994ZM33.9316 44.0835H35.3926L34.6621 41.2959L33.9316 44.0835ZM7.24268 57.9482C7.24268 57.6296 7.16032 57.3896 6.99561 57.2285C6.83447 57.0638 6.53906 56.8937 6.10938 56.7183C5.3252 56.4211 4.76123 56.0737 4.41748 55.6763C4.07373 55.2752 3.90186 54.8026 3.90186 54.2583C3.90186 53.5994 4.1346 53.0713 4.6001 52.6738C5.06917 52.2728 5.66357 52.0723 6.3833 52.0723C6.86312 52.0723 7.29102 52.1743 7.66699 52.3784C8.04297 52.5789 8.33122 52.8636 8.53174 53.2324C8.73584 53.6012 8.83789 54.0202 8.83789 54.4893H7.26416C7.26416 54.124 7.18538 53.8465 7.02783 53.6567C6.87386 53.4634 6.65007 53.3667 6.35645 53.3667C6.08073 53.3667 5.86589 53.4491 5.71191 53.6138C5.55794 53.7749 5.48096 53.9933 5.48096 54.269C5.48096 54.4839 5.56689 54.679 5.73877 54.8545C5.91064 55.0264 6.21501 55.2054 6.65186 55.3916C7.41455 55.6673 7.96777 56.0057 8.31152 56.4067C8.65885 56.8078 8.83252 57.318 8.83252 57.9375C8.83252 58.6178 8.61589 59.1496 8.18262 59.5327C7.74935 59.9159 7.16032 60.1074 6.41553 60.1074C5.91064 60.1074 5.45052 60.0036 5.03516 59.7959C4.61979 59.5882 4.29395 59.291 4.05762 58.9043C3.82487 58.5176 3.7085 58.061 3.7085 57.5347H5.29297C5.29297 57.9858 5.3807 58.3135 5.55615 58.5176C5.73161 58.7217 6.01807 58.8237 6.41553 58.8237C6.96696 58.8237 7.24268 58.5319 7.24268 57.9482ZM15.3853 56.7935C15.3853 57.8426 15.1364 58.6572 14.6387 59.2373C14.1445 59.8174 13.457 60.1074 12.5762 60.1074C11.6989 60.1074 11.0096 59.821 10.5083 59.248C10.007 58.6715 9.75277 57.8659 9.74561 56.8311V55.4937C9.74561 54.4194 9.99447 53.5815 10.4922 52.98C10.9899 52.3748 11.681 52.0723 12.5654 52.0723C13.4355 52.0723 14.1213 52.3695 14.6226 52.9639C15.1239 53.5547 15.3781 54.3854 15.3853 55.4561V56.7935ZM13.8008 55.4829C13.8008 54.7775 13.7005 54.2529 13.5 53.9092C13.2995 53.5654 12.988 53.3936 12.5654 53.3936C12.1465 53.3936 11.8368 53.5601 11.6362 53.8931C11.4357 54.2225 11.3319 54.7256 11.3247 55.4023V56.7935C11.3247 57.4774 11.4268 57.9823 11.6309 58.3081C11.835 58.6304 12.1501 58.7915 12.5762 58.7915C12.988 58.7915 13.2941 58.634 13.4946 58.3188C13.6951 58.0002 13.7972 57.5078 13.8008 56.8418V55.4829ZM21.605 52.1797V57.5938C21.5978 58.4066 21.374 59.0296 20.9336 59.4629C20.4932 59.8926 19.8612 60.1074 19.0376 60.1074C18.1997 60.1074 17.5588 59.889 17.1147 59.4521C16.6743 59.0153 16.4541 58.3833 16.4541 57.5562V52.1797H18.0439V57.5615C18.0439 58.0055 18.1156 58.3224 18.2588 58.5122C18.402 58.702 18.6616 58.7969 19.0376 58.7969C19.4136 58.7969 19.6714 58.7038 19.811 58.5176C19.9507 58.3278 20.0223 58.0181 20.0259 57.5884V52.1797H21.605ZM26.106 57.9482C26.106 57.6296 26.0236 57.3896 25.8589 57.2285C25.6978 57.0638 25.4023 56.8937 24.9727 56.7183C24.1885 56.4211 23.6245 56.0737 23.2808 55.6763C22.937 55.2752 22.7651 54.8026 22.7651 54.2583C22.7651 53.5994 22.9979 53.0713 23.4634 52.6738C23.9325 52.2728 24.5269 52.0723 25.2466 52.0723C25.7264 52.0723 26.1543 52.1743 26.5303 52.3784C26.9062 52.5789 27.1945 52.8636 27.395 53.2324C27.5991 53.6012 27.7012 54.0202 27.7012 54.4893H26.1274C26.1274 54.124 26.0487 53.8465 25.8911 53.6567C25.7371 53.4634 25.5133 53.3667 25.2197 53.3667C24.944 53.3667 24.7292 53.4491 24.5752 53.6138C24.4212 53.7749 24.3442 53.9933 24.3442 54.269C24.3442 54.4839 24.4302 54.679 24.6021 54.8545C24.7739 55.0264 25.0783 55.2054 25.5151 55.3916C26.2778 55.6673 26.8311 56.0057 27.1748 56.4067C27.5221 56.8078 27.6958 57.318 27.6958 57.9375C27.6958 58.6178 27.4792 59.1496 27.0459 59.5327C26.6126 59.9159 26.0236 60.1074 25.2788 60.1074C24.7739 60.1074 24.3138 60.0036 23.8984 59.7959C23.4831 59.5882 23.1572 59.291 22.9209 58.9043C22.6882 58.5176 22.5718 58.061 22.5718 57.5347H24.1562C24.1562 57.9858 24.244 58.3135 24.4194 58.5176C24.5949 58.7217 24.8813 58.8237 25.2788 58.8237C25.8302 58.8237 26.106 58.5319 26.106 57.9482ZM32.4761 58.3994H30.3223L29.9033 60H28.2329L30.6768 52.1797H32.1216L34.5815 60H32.895L32.4761 58.3994ZM30.666 57.0835H32.127L31.3965 54.2959L30.666 57.0835Z" fill="#202020"/>
<path d="M9 2C9 0.89543 9.89543 0 11 0H26C27.1046 0 28 0.89543 28 2V21.5C28 26.7467 23.7467 31 18.5 31V31C13.2533 31 9 26.7467 9 21.5V2Z" fill="#202020"/>
<path d="M14.0156 15.2383C14.0156 13.5911 14.3151 12.3477 14.9141 11.5078C15.513 10.6615 16.3887 10.2383 17.541 10.2383C18.6152 10.2383 19.4323 10.6973 19.9922 11.6152L20.0801 10.4336H21.6426V21.0977C21.6426 22.4062 21.3073 23.4089 20.6367 24.1055C19.9661 24.8086 19.0319 25.1602 17.834 25.1602C17.3132 25.1602 16.7272 25.0299 16.0762 24.7695C15.4316 24.5156 14.9466 24.1999 14.6211 23.8223L15.3242 22.6309C16.0404 23.334 16.8314 23.6855 17.6973 23.6855C19.1361 23.6855 19.875 22.901 19.9141 21.332V19.9551C19.3542 20.7819 18.5599 21.1953 17.5312 21.1953C16.4375 21.1953 15.5846 20.7852 14.9727 19.9648C14.3607 19.138 14.0417 17.9531 14.0156 16.4102V15.2383ZM15.7441 16.2246C15.7441 17.4095 15.9167 18.2819 16.2617 18.8418C16.6133 19.3952 17.1862 19.6719 17.9805 19.6719C18.8398 19.6719 19.4844 19.2324 19.9141 18.3535V13.0703C19.4648 12.2044 18.8268 11.7715 18 11.7715C17.2057 11.7715 16.6328 12.0514 16.2812 12.6113C15.9297 13.1647 15.7507 14.0176 15.7441 15.1699V16.2246Z" fill="white"/>
</svg>
