<svg width="62" height="70" viewBox="0 0 62 70" fill="none" xmlns="http://www.w3.org/2000/svg">
<path d="M61.6045 0.490603C61.3177 0.178127 60.9147 0 60.4905 0H1.50954C1.08536 0 0.682311 0.178127 0.395497 0.490603C0.108684 0.80308 -0.0317038 1.22273 0.00603484 1.6439L5.31963 61.1609C5.37549 61.7828 5.80873 62.3066 6.40953 62.4787L30.5773 69.3819C30.7117 69.4196 30.8521 69.4392 30.991 69.4392C31.1298 69.4392 31.2702 69.4196 31.4046 69.3819L55.5935 62.4787C56.1943 62.3066 56.6276 61.7828 56.6834 61.1609L61.994 1.6439C62.0318 1.22273 61.8899 0.80308 61.6045 0.490603ZM11.3759 40.7638L21.9427 43.6954V13.5859H27.9809V52.8342L11.3759 48.2286V40.7638ZM50.7056 30.191L49.1146 48.6829L34.0191 52.8342V45.8888L44.2085 43.0885L44.5859 37.4277L34.0191 39.2483V13.5859H52.1337L51.6129 19.6241H40.0573V31.7005L50.7056 30.191Z" fill="#202020"/>
</svg>
