<svg width="62" height="70" viewBox="0 0 62 70" fill="none" xmlns="http://www.w3.org/2000/svg">
<path d="M61.2619 0.965088C60.7106 0.350678 59.9241 0 59.1 0H2.9019C2.07776 0 1.29135 0.350678 0.739988 0.965088C0.188628 1.5795 -0.072543 2.39968 0.0174157 3.21696L6.40739 60.6673C6.53507 61.8352 7.36211 62.8119 8.49385 63.1336L30.2 69.327C30.4612 69.4023 30.7311 69.44 30.998 69.44C31.265 69.44 31.5349 69.4023 31.7961 69.327L53.5023 63.1336C54.634 62.8119 55.4581 61.8352 55.5887 60.6673L61.9816 3.21696C62.0744 2.39968 61.8133 1.5795 61.2619 0.965088Z" fill="#202020"/>
<path d="M22.1765 41.4877C22.1765 37.8009 25.1787 34.8003 28.8676 34.8003H33.8382C36.6845 34.8003 39 34.0146 39 31.17V28.6999V25.6428V21.0571C39 21.0571 38.9832 18 31.3529 18C23.7227 18 23.7059 21.0571 23.7059 21.0571V27.1713H32.8824V28.6999H17.5882C17.5882 28.6999 13 27.9967 13 36.3426C13 44.6885 17.5882 43.9854 17.5882 43.9854H22.1765V41.4877ZM26.7647 24.1142C25.9205 24.1142 25.2353 23.4294 25.2353 22.5857C25.2353 21.7419 25.9205 21.0571 26.7647 21.0571C27.6089 21.0571 28.2941 21.7419 28.2941 22.5857C28.2941 23.4294 27.6089 24.1142 26.7647 24.1142Z" fill="white"/>
<path d="M44.5882 27.0185H40.1765V31.0166C40.1765 34.7029 37.2897 36.1747 33.7426 36.1747H28.9632C26.2265 36.1747 24 38.4886 24 41.3328V42.3018V45.3584V49.9434C24 49.9434 24.0897 53 31.3529 53C38.6162 53 38.7059 49.9434 38.7059 49.9434V43.8301H29.8824V42.3018H44.5882C44.5882 42.3018 49 43.0736 49 34.6602C49 26.2467 44.5882 27.0185 44.5882 27.0185ZM35.7647 46.8867C36.5765 46.8867 37.2353 47.5714 37.2353 48.415C37.2353 49.2587 36.5765 49.9434 35.7647 49.9434C34.9529 49.9434 34.2941 49.2587 34.2941 48.415C34.2941 47.5714 34.9529 46.8867 35.7647 46.8867Z" fill="white"/>
</svg>
