<svg width="62" height="70" viewBox="0 0 62 70" fill="none" xmlns="http://www.w3.org/2000/svg">
<path d="M61.2619 0.965088C60.7106 0.350678 59.9241 0 59.1 0H2.9019C2.07776 0 1.29135 0.350678 0.739988 0.965088C0.188628 1.5795 -0.072543 2.39968 0.0174157 3.21696L6.40739 60.6673C6.53507 61.8352 7.36211 62.8119 8.49385 63.1336L30.2 69.327C30.4612 69.4023 30.7311 69.44 30.998 69.44C31.265 69.44 31.5349 69.4023 31.7961 69.327L53.5023 63.1336C54.634 62.8119 55.4581 61.8352 55.5887 60.6673L61.9816 3.21696C62.0745 2.39968 61.8133 1.5795 61.2619 0.965088ZM47.0078 29.1961L45.7136 50.3092L31.0938 55.0825L16.4741 50.3092L15.9198 40.212H23.3196L23.5054 44.8027L31.0938 47.3734L38.6823 44.8027L39.2365 36.5429H22.9511L22.5826 29.199H39.608L40.1622 21.8551H14.6227L14.0684 14.5082H47.9335L47.0078 29.1961Z" fill="#202020"/>
</svg>
