<svg width="62" height="70" viewBox="0 0 62 70" fill="none" xmlns="http://www.w3.org/2000/svg">
<path d="M61.2619 0.965088C60.7106 0.350678 59.9241 0 59.1 0H2.9019C2.07776 0 1.29135 0.350678 0.739988 0.965088C0.188628 1.5795 -0.072543 2.39968 0.0174157 3.21696L6.40739 60.6673C6.53507 61.8352 7.36211 62.8119 8.49385 63.1336L30.2 69.327C30.4612 69.4023 30.7311 69.44 30.998 69.44C31.265 69.44 31.5349 69.4023 31.7961 69.327L53.5023 63.1336C54.634 62.8119 55.4581 61.8352 55.5887 60.6673L61.9816 3.21696C62.0744 2.39968 61.8133 1.5795 61.2619 0.965088Z" fill="#202020"/>
<path d="M30.9172 32.8568C29.9774 31.403 29.2988 30.2004 28.3561 27.936C26.7623 24.1059 38.0527 20.6453 33.4718 14C35.4569 18.5931 26.3522 21.4285 25.507 25.2558C24.7303 28.7719 30.9122 32.8568 30.9172 32.8568Z" fill="white"/>
<path d="M31.1309 25.9718C30.9497 28.2441 33.2264 29.4569 33.2914 31.1106C33.3441 32.4612 31.9307 33.5851 31.9307 33.5851C31.9307 33.5851 34.4947 33.1036 35.2959 31.0413C36.1845 28.7552 33.5736 27.1931 33.8385 25.3625C34.0919 23.6113 39.5108 20.3616 39.5108 20.3616C39.5108 20.3616 31.5373 20.8669 31.1309 25.9718ZM38.8424 32.9968C40.4903 32.6416 41.8821 33.6493 41.8821 34.8122C41.8821 37.4282 38.1025 39.9005 38.1025 39.9005C38.1025 39.9005 43.9552 39.2314 43.9552 34.9335C43.9552 32.0945 41.0801 31.3864 38.8424 32.9968Z" fill="white"/>
<path d="M36.0662 35.1082C36.0662 35.1082 37.8917 33.8594 38.3768 33.3931C33.8999 34.3055 23.68 34.4268 23.68 33.6363C23.68 32.908 26.9738 32.1573 26.9738 32.1573C26.9738 32.1573 19.6687 32.0569 19.6687 34.125C19.6694 36.2841 29.2346 36.4364 36.0662 35.1082Z" fill="white"/>
<path d="M34.943 37.0716C30.7079 38.4273 22.8989 37.9927 25.2103 36.178C24.0885 36.178 22.4167 37.0456 22.4167 37.8794C22.4167 39.5577 30.8573 40.8498 37.1056 38.3984L34.943 37.0716Z" fill="white"/>
<path d="M26.2498 39.9316C24.7137 39.9316 23.7168 40.8809 23.7168 41.5775C23.7168 43.7322 32.89 43.9494 36.5253 41.7586L34.2154 40.2882C31.5005 41.4367 24.6819 41.5919 26.2498 39.9316Z" fill="white"/>
<path d="M42.6429 43.5422C42.6429 42.6998 41.6511 42.2999 41.2931 42.1086C43.3871 46.958 20.3219 46.5812 20.3219 43.7205C20.3219 43.068 22.0161 42.4306 23.5883 42.7352L22.2543 41.978C19.1251 41.5052 17 42.8233 17 43.8894C16.9993 48.8528 42.6429 48.6139 42.6429 43.5422Z" fill="white"/>
<path d="M45.3462 45.2213C41.4482 48.9165 31.5669 50.2627 21.6313 47.9809C31.5661 52.0457 45.2971 49.7588 45.3462 45.2213Z" fill="white"/>
</svg>
