<svg width="62" height="70" viewBox="0 0 62 70" fill="none" xmlns="http://www.w3.org/2000/svg">
<path d="M61.2619 0.965088C60.7106 0.350678 59.9241 0 59.1 0H2.9019C2.07776 0 1.29135 0.350678 0.739988 0.965088C0.188628 1.5795 -0.072543 2.39968 0.0174157 3.21696L6.40739 60.6673C6.53507 61.8352 7.36211 62.8119 8.49385 63.1336L30.2 69.327C30.4612 69.4023 30.7311 69.44 30.998 69.44C31.265 69.44 31.5349 69.4023 31.7961 69.327L53.5023 63.1336C54.634 62.8119 55.4581 61.8352 55.5887 60.6673L61.9816 3.21696C62.0745 2.39968 61.8133 1.5795 61.2619 0.965088ZM47.3357 21.5334H21.4218L22.037 28.9005H46.7118L44.8604 50.6657L31.0097 55.0651L30.8733 55.0216L17.1763 50.6599L16.4276 41.7915H23.1368L23.4299 45.2374L31.0822 46.9213L38.601 45.2345L39.399 35.9227H15.9227L14.1061 14.4908H47.9393L47.3357 21.5334Z" fill="#202020"/>
</svg>
