<svg width="62" height="70" viewBox="0 0 62 70" fill="none" xmlns="http://www.w3.org/2000/svg">
<path d="M61.2619 0.965088C60.7106 0.350678 59.9241 0 59.1 0H2.9019C2.07776 0 1.29135 0.350678 0.739988 0.965088C0.188628 1.5795 -0.072543 2.39968 0.0174157 3.21696L6.40739 60.6673C6.53507 61.8352 7.36211 62.8119 8.49385 63.1336L30.2 69.327C30.4612 69.4023 30.7311 69.44 30.998 69.44C31.265 69.44 31.5349 69.4023 31.7961 69.327L53.5023 63.1336C54.634 62.8119 55.4581 61.8352 55.5887 60.6673L61.9816 3.21696C62.0744 2.39968 61.8133 1.5795 61.2619 0.965088Z" fill="#202020"/>
<path d="M30.5465 31.392C29.5075 31.392 28.511 31.8042 27.7763 32.5379C27.0416 33.2717 26.6289 34.2668 26.6289 35.3045C26.6289 36.3422 27.0416 37.3373 27.7763 38.0711C28.511 38.8048 29.5075 39.217 30.5465 39.217C31.5855 39.217 32.5819 38.8048 33.3166 38.0711C34.0513 37.3373 34.464 36.3422 34.464 35.3045C34.464 34.2668 34.0513 33.2717 33.3166 32.5379C32.5819 31.8042 31.5855 31.392 30.5465 31.392Z" stroke="white" stroke-width="2" stroke-miterlimit="10" stroke-linejoin="round"/>
<path d="M23.2287 31.0883C20.3021 36.1508 18.2633 41.4487 17.5607 45.8166C16.8581 50.1845 17.5494 53.2645 19.4824 54.3791C21.4153 55.4936 24.4318 54.5515 27.868 51.7599C31.3043 48.9683 34.8789 44.5559 37.8055 39.4934C40.7321 34.4309 42.771 29.1329 43.4736 24.7651C44.1761 20.3972 43.4849 17.3172 41.5519 16.2026C39.6189 15.088 36.6025 16.0302 33.1662 18.8218C29.73 21.6134 26.1553 26.0258 23.2287 31.0883V31.0883Z" stroke="white" stroke-width="2.043"/>
<path d="M52.0931 34.9064C52.0931 39.5457 42.4383 43.3115 30.5466 43.3115C18.6548 43.3115 9 39.5457 9 34.9064C9 30.2671 18.6548 26.5013 30.5466 26.5013C42.4383 26.5013 52.0931 30.2671 52.0931 34.9064Z" stroke="white" stroke-width="2.019"/>
<path d="M19.4914 16.2291C17.5584 17.3437 16.8671 20.4237 17.5697 24.7916C18.2723 29.1594 20.3112 34.4574 23.2378 39.5199C26.1644 44.5824 29.739 48.9948 33.1753 51.7864C36.6115 54.578 39.6279 55.5202 41.5609 54.4056C43.4939 53.291 44.1852 50.211 43.4826 45.8431C42.78 41.4753 40.7411 36.1773 37.8145 31.1148C34.8879 26.0523 31.3133 21.6399 27.8771 18.8483C24.4408 16.0567 21.4244 15.1145 19.4914 16.2291V16.2291Z" stroke="white" stroke-width="2"/>
</svg>
