<svg width="62" height="70" viewBox="0 0 62 70" fill="none" xmlns="http://www.w3.org/2000/svg">
<path d="M61.2619 0.965088C60.7106 0.350678 59.9241 0 59.1 0H2.9019C2.07776 0 1.29135 0.350678 0.739988 0.965088C0.188628 1.5795 -0.072543 2.39968 0.0174157 3.21696L6.40739 60.6673C6.53507 61.8352 7.36211 62.8119 8.49385 63.1336L30.2 69.327C30.4612 69.4023 30.7311 69.44 30.998 69.44C31.265 69.44 31.5349 69.4023 31.7961 69.327L53.5023 63.1336C54.634 62.8119 55.4581 61.8352 55.5887 60.6673L61.9816 3.21696C62.0744 2.39968 61.8133 1.5795 61.2619 0.965088Z" fill="#202020"/>
<path d="M25.3334 50.8667C22.8298 50.8667 20.8 48.8369 20.8 46.3334C20.8 43.8298 22.8298 41.8 25.3334 41.8H28.5713C29.2864 41.8 29.8667 42.3803 29.8667 43.0954V46.3334C29.8667 48.8369 27.8369 50.8667 25.3334 50.8667Z" fill="white"/>
<path d="M36.6666 28.2H33.4287C32.7136 28.2 32.1333 27.6197 32.1333 26.9046V20.4287C32.1333 19.7136 32.7136 19.1333 33.4287 19.1333H36.6666C39.1702 19.1333 41.2 21.1631 41.2 23.6666C41.2 26.1702 39.1702 28.2 36.6666 28.2Z" fill="white"/>
<path d="M25.3334 19.1333H28.5713C29.2864 19.1333 29.8667 19.7136 29.8667 20.4287V26.9046C29.8667 27.6197 29.2864 28.2 28.5713 28.2H25.3334C22.8298 28.2 20.8 26.1702 20.8 23.6666C20.8 21.1631 22.8298 19.1333 25.3334 19.1333Z" fill="white"/>
<path d="M25.3334 30.4667H28.5713C29.2864 30.4667 29.8667 31.0469 29.8667 31.7621V38.2379C29.8667 38.9531 29.2864 39.5333 28.5713 39.5333H25.3334C22.8298 39.5333 20.8 37.5035 20.8 35C20.8 32.4965 22.8298 30.4667 25.3334 30.4667Z" fill="white"/>
<path d="M36.6666 39.5333C39.1703 39.5333 41.2 37.5037 41.2 35C41.2 32.4963 39.1703 30.4667 36.6666 30.4667C34.1629 30.4667 32.1333 32.4963 32.1333 35C32.1333 37.5037 34.1629 39.5333 36.6666 39.5333Z" fill="white"/>
</svg>
