<svg width="62" height="70" viewBox="0 0 62 70" fill="none" xmlns="http://www.w3.org/2000/svg">
<path d="M0.395454 0.490603C0.682266 0.178127 1.08531 0 1.50949 0H60.4905C60.9146 0 61.3177 0.178127 61.6045 0.490603C61.8913 0.80308 62.0317 1.22273 61.994 1.6439L56.6804 61.1609C56.6245 61.7828 56.1913 62.3066 55.5905 62.4787L31.4227 69.3819C31.2883 69.4196 31.1479 69.4392 31.009 69.4392C30.8702 69.4392 30.7298 69.4196 30.5954 69.3819L6.40646 62.4787C5.80566 62.3066 5.37243 61.7828 5.31657 61.1609L0.00598526 1.6439C-0.0317535 1.22273 0.110149 0.80308 0.395454 0.490603Z" fill="#202020"/>
<path d="M47.6098 24.4615L32.3165 15.4258C31.3452 14.8581 30.0656 14.8581 29.0944 15.4258L13.8165 24.4458C12.8298 25.0292 12.2131 26.1331 12.2131 27.3V43.6685C12.2131 44.8512 12.8298 45.9392 13.8165 46.5227L17.8248 48.8881C19.7673 49.8658 20.4611 49.8658 21.3398 49.8658C24.2227 49.8658 25.8723 48.0838 25.8723 44.9931V28.1042C25.8723 27.8519 25.6719 27.6469 25.4252 27.6469H23.4981C23.2361 27.6469 23.0511 27.8519 23.0511 28.1042V44.9773C23.0511 46.365 21.6481 47.7212 19.3819 46.57L15.1886 44.0942C15.0344 44.0154 14.9419 43.8419 14.9419 43.6685V27.3158C14.9419 27.1265 15.0344 26.9688 15.1886 26.8742L30.4665 17.8542C30.6052 17.7596 30.7902 17.7596 30.9444 17.8542L46.2223 26.8742C46.3765 26.9688 46.469 27.1265 46.469 27.3V43.6685C46.469 43.8419 46.3765 44.0154 46.2377 44.0942L30.9444 53.13C30.8056 53.2088 30.6052 53.2088 30.4665 53.13L26.5352 50.7488C26.4273 50.67 26.2731 50.6542 26.1652 50.7173C25.0706 51.3481 24.8702 51.4269 23.8527 51.7896C23.6061 51.8685 23.2206 52.0262 23.9915 52.4677L29.0944 55.5585C29.5877 55.8423 30.1427 56 30.6977 56C31.2681 56 31.8231 55.8423 32.3165 55.5585L47.6098 46.5227C48.5965 45.9392 49.2131 44.8512 49.2131 43.6685V27.3158C49.2131 26.1331 48.5965 25.045 47.6098 24.4615Z" fill="white"/>
<path d="M43.2131 39.4313C43.2131 42.9691 40.3868 45 35.4565 45C28.642 45 27.2131 41.7407 27.2131 39.0055C27.2131 38.7598 27.4016 38.5469 27.6528 38.5469H29.6783C29.8981 38.5469 30.0865 38.7106 30.1179 38.9399C30.4163 41.0692 31.327 42.1501 35.4565 42.1501C38.7382 42.1501 40.1356 41.3803 40.1356 39.5787C40.1356 38.5305 39.7431 37.7443 34.64 37.2202C30.3692 36.778 27.7313 35.7953 27.7313 32.2411C27.7313 28.9654 30.3849 27 34.8284 27C39.8216 27 42.2867 28.818 42.6008 32.6833C42.6165 32.8308 42.5694 32.9618 42.4909 33.0437C42.3967 33.1419 42.2867 33.2075 42.1611 33.2075H40.1356C39.9158 33.2075 39.7431 33.0437 39.696 32.8308C39.2092 30.5869 38.0159 29.8662 34.8284 29.8662C31.2485 29.8662 30.8245 31.1601 30.8245 32.1429C30.8245 33.3221 31.3113 33.6661 36.1631 34.3212C40.9364 34.9927 43.2131 35.9263 43.2131 39.4313Z" fill="white"/>
</svg>
