<svg width="62" height="70" viewBox="0 0 62 70" fill="none" xmlns="http://www.w3.org/2000/svg">
<path d="M61.2619 0.965088C60.7106 0.350678 59.9241 0 59.1 0H2.9019C2.07776 0 1.29135 0.350678 0.739988 0.965088C0.188628 1.5795 -0.072543 2.39968 0.0174157 3.21696L6.40739 60.6673C6.53507 61.8352 7.36211 62.8119 8.49385 63.1336L30.2 69.327C30.4612 69.4023 30.7311 69.44 30.998 69.44C31.265 69.44 31.5349 69.4023 31.7961 69.327L53.5023 63.1336C54.634 62.8119 55.4581 61.8352 55.5887 60.6673L61.9816 3.21696C62.0744 2.39968 61.8133 1.5795 61.2619 0.965088Z" fill="#202020"/>
<path d="M30.5121 31.4847C29.5229 31.4847 28.5743 31.8777 27.8749 32.5771C27.1755 33.2765 26.7826 34.2251 26.7826 35.2142C26.7826 36.2033 27.1755 37.1519 27.8749 37.8513C28.5743 38.5507 29.5229 38.9437 30.5121 38.9437C31.5012 38.9437 32.4498 38.5507 33.1492 37.8513C33.8486 37.1519 34.2415 36.2033 34.2415 35.2142C34.2415 34.2251 33.8486 33.2765 33.1492 32.5771C32.4498 31.8777 31.5012 31.4847 30.5121 31.4847Z" stroke="white" stroke-width="2" stroke-miterlimit="10" stroke-linejoin="round"/>
<path d="M23.5456 31.1952C20.7595 36.0209 18.8186 41.0709 18.1497 45.2344C17.4809 49.398 18.1389 52.3339 19.9791 53.3963C21.8193 54.4587 24.6909 53.5607 27.9622 50.8997C31.2334 48.2387 34.6364 44.0327 37.4225 39.207C40.2086 34.3814 42.1496 29.3313 42.8184 25.1678C43.4873 21.0043 42.8292 18.0684 40.9891 17.006C39.1489 15.9435 36.2773 16.8416 33.006 19.5026C29.7347 22.1636 26.3317 26.3696 23.5456 31.1952V31.1952Z" stroke="white" stroke-width="2.043"/>
<path d="M51.0242 34.8347C51.0242 39.2569 41.8329 42.8465 30.5121 42.8465C19.1913 42.8465 10 39.2569 10 34.8347C10 30.4125 19.1913 26.8229 30.5121 26.8229C41.8329 26.8229 51.0242 30.4125 51.0242 34.8347Z" stroke="white" stroke-width="2.019"/>
<path d="M19.9878 17.0313C18.1476 18.0938 17.4895 21.0297 18.1584 25.1932C18.8272 29.3567 20.7682 34.4067 23.5543 39.2324C26.3404 44.0581 29.7434 48.264 33.0147 50.925C36.286 53.586 39.1576 54.4841 40.9977 53.4216C42.8379 52.3592 43.496 49.4233 42.8271 45.2598C42.1583 41.0963 40.2173 36.0462 37.4312 31.2206C34.6451 26.3949 31.2421 22.1889 27.9708 19.5279C24.6996 16.8669 21.828 15.9689 19.9878 17.0313Z" stroke="white" stroke-width="2"/>
<ellipse cx="30.5121" cy="35.2143" rx="4.06986" ry="4.06986" fill="white"/>
</svg>
