<svg width="17" height="17" viewBox="0 0 17 17" fill="none" xmlns="http://www.w3.org/2000/svg">
<path d="M8.49999 1.30762C4.52803 1.30762 1.30768 4.5784 1.30768 8.61254C1.30768 12.0355 3.6284 14.8996 6.75705 15.6922C6.72349 15.5936 6.70191 15.4792 6.70191 15.3373V14.0888C6.41002 14.0888 5.92094 14.0888 5.79808 14.0888C5.306 14.0888 4.86847 13.8739 4.6563 13.4746C4.42075 13.0308 4.37999 12.3521 3.79622 11.9369C3.623 11.7987 3.75486 11.641 3.95445 11.6623C4.32305 11.7683 4.62873 12.0252 4.91642 12.4062C5.20291 12.7879 5.33777 12.8744 5.873 12.8744C6.13252 12.8744 6.5209 12.8591 6.88651 12.8007C7.0831 12.2936 7.42294 11.8267 7.83829 11.6063C5.44325 11.3562 4.30028 10.146 4.30028 8.50297C4.30028 7.79561 4.59696 7.11138 5.10102 6.5349C4.9356 5.96268 4.72762 4.79572 5.16455 4.35134C6.2422 4.35134 6.8937 5.06113 7.05014 5.25289C7.58716 5.066 8.17693 4.96008 8.79667 4.96008C9.4176 4.96008 10.0098 5.066 10.548 5.2541C10.7026 5.06357 11.3547 4.35134 12.4348 4.35134C12.8735 4.79633 12.6631 5.96816 12.4959 6.53916C12.997 7.11442 13.2919 7.79683 13.2919 8.50297C13.2919 10.1448 12.1507 11.3543 9.75924 11.6057C10.4173 11.9545 10.8974 12.9346 10.8974 13.673V15.3373C10.8974 15.4006 10.8836 15.4463 10.8764 15.5005C13.679 14.5027 15.6923 11.7999 15.6923 8.61254C15.6923 4.5784 12.4719 1.30762 8.49999 1.30762Z" fill="#202020"/>
</svg>
